<svg xmlns="http://www.w3.org/2000/svg" viewBox="0 0 500 500"><g id="freepik--Shadow--inject-9"><ellipse cx="250" cy="416.24" rx="193.89" ry="11.32" style="fill:#f5f5f5"></ellipse></g><g id="freepik--Mail--inject-9"><polygon points="48.86 150.56 276.83 183.38 307.42 214.25 48.86 150.56" style="fill:#FF3F3F"></polygon><polygon points="48.86 150.56 276.83 183.38 307.42 214.25 48.86 150.56" style="fill:#fff;opacity:0.6000000000000001"></polygon><polygon points="48.86 150.56 276.83 183.38 266.25 228.02 48.86 150.56" style="fill:#FF3F3F"></polygon><polygon points="48.86 150.56 276.83 183.38 266.25 228.02 48.86 150.56" style="opacity:0.2"></polygon><path d="M261.57,98.88l13.23,62a6.25,6.25,0,0,1-4.8,7.41l-118.08,25.2a6.26,6.26,0,0,1-7.41-4.8l-13.24-62a6.26,6.26,0,0,1,4.81-7.41l118.08-25.2a6.26,6.26,0,0,1,7.41,4.81Z" style="fill:#FF3F3F"></path><path d="M261.57,98.88l13.23,62a6.25,6.25,0,0,1-4.8,7.41l-118.08,25.2a6.26,6.26,0,0,1-7.41-4.8l-13.24-62a6.26,6.26,0,0,1,4.81-7.41l118.08-25.2a6.26,6.26,0,0,1,7.41,4.81Z" style="opacity:0.4"></path><path d="M258.66,94.82l-39.45,48.43a25.43,25.43,0,0,1-31.15,6.65l-55.79-28.1a6.22,6.22,0,0,1,3.81-2.53l118.08-25.2A6.23,6.23,0,0,1,258.66,94.82Z" style="fill:#FF3F3F"></path><polygon points="48.86 150.56 236.89 195.25 266.25 228.02 48.86 150.56" style="fill:#FF3F3F"></polygon><polygon points="48.86 150.56 236.89 195.25 266.25 228.02 48.86 150.56" style="fill:#fff;opacity:0.6000000000000001"></polygon><rect x="127.15" y="188.08" width="1" height="24.25" transform="translate(-109.61 209.15) rotate(-59.64)" style="fill:#FF3F3F"></rect><rect x="150.62" y="209.59" width="1" height="8.72" transform="translate(-109.87 236.19) rotate(-59.64)" style="fill:#FF3F3F"></rect><polygon points="48.86 150.56 236.89 195.25 200.34 239.3 48.86 150.56" style="fill:#FF3F3F"></polygon><path d="M300.36,255.26a2,2,0,0,1-.74-.14L269,243a2,2,0,0,1,1.47-3.72L301.1,251.4a2,2,0,0,1-.74,3.86Z" style="fill:#FF3F3F"></path><path d="M300.36,255.26a2,2,0,0,1-.74-.14L269,243a2,2,0,0,1,1.47-3.72L301.1,251.4a2,2,0,0,1-.74,3.86Z" style="opacity:0.30000000000000004"></path><path d="M298.55,237.7a1.91,1.91,0,0,1-.73-.15L281.37,231a2,2,0,1,1,1.47-3.72l16.45,6.52a2,2,0,0,1,1.13,2.59A2,2,0,0,1,298.55,237.7Z" style="fill:#FF3F3F"></path><path d="M298.55,237.7a1.91,1.91,0,0,1-.73-.15L281.37,231a2,2,0,1,1,1.47-3.72l16.45,6.52a2,2,0,0,1,1.13,2.59A2,2,0,0,1,298.55,237.7Z" style="fill:#fff;opacity:0.5"></path><path d="M264.16,255a2.1,2.1,0,0,1-.73-.14L233.56,243a2,2,0,1,1,1.47-3.72L264.9,251.1a2,2,0,0,1-.74,3.86Z" style="fill:#FF3F3F"></path><path d="M264.16,255a2.1,2.1,0,0,1-.73-.14L233.56,243a2,2,0,1,1,1.47-3.72L264.9,251.1a2,2,0,0,1-.74,3.86Z" style="opacity:0.30000000000000004"></path></g></svg>